<mxfile host="app.diagrams.net" modified="2024-04-17T13:38:16.149Z" agent="Mozilla/5.0 (X11; Linux x86_64) AppleWebKit/537.36 (KHTML, like Gecko) Chrome/123.0.0.0 Safari/537.36" version="23.1.6" etag="02y9gZFFyq5Njh3tZHF8" type="github">
  <diagram name="Page-1" id="2EUsOOOVj8OHihhh9qo4">
    <mxGraphModel>
      <root>
        <mxCell id="0" />
        <mxCell id="1" parent="0" />
      </root>
    </mxGraphModel>
  </diagram>
</mxfile>
